<?xml version="1.0" encoding="iso-8859-1"?>
<!-- Generator: Adobe Illustrator 16.0.0, SVG Export Plug-In . SVG Version: 6.00 Build 0)  -->
<!DOCTYPE svg PUBLIC "-//W3C//DTD SVG 1.1//EN" "http://www.w3.org/Graphics/SVG/1.1/DTD/svg11.dtd">
<svg version="1.1" xmlns="http://www.w3.org/2000/svg" xmlns:xlink="http://www.w3.org/1999/xlink" x="0px" y="0px" width="103px"
	 height="13.388px" viewBox="0 0 103 13.388" style="enable-background:new 0 0 103 13.388;" xml:space="preserve">
<g id="logo-clubalmundo">
	<path style="fill:#FFFFFF;" d="M98.199,3.459c-2.648,0-4.805,2.222-4.805,4.958c0,2.728,2.156,4.953,4.805,4.953
		c2.646,0,4.801-2.226,4.801-4.953C103,5.681,100.846,3.459,98.199,3.459z M98.199,11.125c-1.453,0-2.633-1.215-2.633-2.708
		c0-1.498,1.18-2.714,2.633-2.714c1.449,0,2.631,1.217,2.631,2.714C100.83,9.91,99.648,11.125,98.199,11.125z M59.262,3.44
		c-1.152,0-2.188,0.475-2.912,1.335l-0.084,0.098l-0.08-0.102C55.5,3.915,54.465,3.44,53.277,3.44c-2.432,0-4.127,1.736-4.127,4.219
		v5.501h2.193V7.604c0-1.146,0.797-1.952,1.934-1.952c1.676,0,1.857,1.365,1.857,1.952v5.556h2.193V7.604
		c0-1.146,0.795-1.952,1.934-1.952c1.74,0,1.877,1.495,1.877,1.952v5.556h2.197V7.659C63.336,5.099,61.736,3.44,59.262,3.44z
		 M39.439,3.417h-0.066c-2.773,0-4.904,2.129-4.936,4.956c-0.031,2.732,2.021,4.977,4.553,5.012h0.102
		c0.807,0,1.568-0.113,2.076-0.311l0.059-0.023l-0.002-3.826l-0.152,0.23l-1.174,1.765l-0.006,0.003
		c-0.191,0.037-0.381,0.058-0.564,0.058c-0.684,0-1.303-0.257-1.783-0.748c-0.543-0.547-0.859-1.339-0.852-2.115
		c0.02-1.54,1.184-2.743,2.65-2.743h0.035c1.465,0.018,2.619,1.25,2.619,2.807l-0.008,4.668h2.303l-0.004-4.66
		C44.324,5.63,42.406,3.417,39.439,3.417z M45.533,13.141h2.264V0.132h-2.264V13.141z M90.373,8.322c0,1.554-1.15,2.786-2.617,2.805
		h-0.033c-1.469,0-2.635-1.205-2.65-2.742c-0.008-0.78,0.309-1.569,0.848-2.113c0.484-0.494,1.1-0.751,1.785-0.751
		c0.182,0,0.375,0.021,0.562,0.059l0.01,0.002l1.174,1.763L89.6,7.577l0.006-3.826l-0.062-0.026
		c-0.512-0.197-1.266-0.308-2.074-0.308h-0.098c-2.533,0.029-4.566,2.276-4.539,5.014c0.035,2.823,2.145,4.954,4.916,4.954h0.068
		c2.795-0.035,4.881-2.217,4.85-5.076l0.006-8.203h-2.307L90.373,8.322z M77.84,3.44c-2.428,0-4.129,1.736-4.129,4.219v5.501h2.197
		V7.604c0-1.146,0.793-1.952,1.932-1.952c1.74,0,1.875,1.495,1.875,1.952v5.556h2.195V7.659C81.91,5.099,80.314,3.44,77.84,3.44z
		 M70.426,9.242c0,1.127-0.812,1.947-1.93,1.947c-1.742,0-1.877-1.491-1.877-1.947V3.688h-2.195v5.478
		c0,2.564,1.598,4.223,4.072,4.223c2.43,0,4.125-1.738,4.125-4.223V3.688h-2.195V9.242z"/>
	<path style="fill:#FF8300;" d="M28.693,3.468c-2.197,0-2.992,1.587-2.992,1.587h-0.035c0,0,0.035-0.33,0.035-0.794V0h-1.789v13.028
		h1.697v-0.685c0-0.404-0.037-0.699-0.037-0.699h0.037c0,0,0.852,1.605,2.936,1.605c2.453,0,4.246-1.921,4.246-4.895
		C32.791,5.463,31.201,3.468,28.693,3.468z M28.285,11.716c-1.77,0-2.639-1.659-2.639-3.318c0-2.383,1.293-3.361,2.693-3.361
		c1.551,0,2.641,1.31,2.641,3.34C30.98,10.5,29.764,11.716,28.285,11.716z M5.131,11.698c-1.936,0-3.303-1.46-3.303-3.36
		c0-1.916,1.367-3.319,3.248-3.319c1.586,0,2.582,1.071,2.582,1.071l0.848-1.256c0,0-1.16-1.366-3.504-1.366
		C2.068,3.468,0,5.59,0,8.355c0,2.808,2.068,4.895,5.002,4.895c2.436,0,3.729-1.496,3.729-1.496l-0.719-1.312
		C8.012,10.442,6.865,11.698,5.131,11.698z M11.514,10.168V0H9.725v10.481c0,2.343,1.494,2.619,2.51,2.619
		c0.314,0,0.59-0.035,0.59-0.035v-1.589c0,0-0.145,0.021-0.314,0.021C11.957,11.497,11.514,11.291,11.514,10.168z M20.242,8.063
		c0,1.847-1.125,3.524-3.025,3.524c-1.494,0-1.754-1.031-1.754-2.325V3.691h-1.791V9.67c0,2.471,1.092,3.58,3.195,3.58
		c1.824,0,3.043-1.218,3.43-2.143h0.039c0,0-0.039,0.296-0.039,0.684v1.237h1.736V3.691h-1.791V8.063z"/>
</g>
<g id="Layer_1">
</g>
</svg>
