<?xml version="1.0" encoding="utf-8"?>
<!-- Generator: Adobe Illustrator 21.1.0, SVG Export Plug-In . SVG Version: 6.00 Build 0)  -->
<svg version="1.1" id="Capa_1" xmlns="http://www.w3.org/2000/svg" xmlns:xlink="http://www.w3.org/1999/xlink" x="0px" y="0px"
	 viewBox="0 0 368 239.6" style="enable-background:new 0 0 368 239.6;" xml:space="preserve">
<style type="text/css">
	.st0{fill:#2AB2DB;}
	.st1{fill:none;stroke:#CCCCCC;stroke-width:1.5;stroke-linecap:round;stroke-miterlimit:10;stroke-dasharray:5,5,5,5,5,5;}
	.st2{fill:none;stroke:#EAEAEA;stroke-width:1.1574;stroke-miterlimit:10;}
	.st3{fill:#AAAAAA;}
	.st4{fill:#CCCCCC;}
	.st5{fill:#034375;}
	.st6{fill:#F6CD64;}
	.st7{fill:#F4A721;}
	.st8{fill:#F4D01E;}
	.st9{fill:#FF8300;}
</style>
<g id="Layer_1_1_">
	<g>
		<g>
			<circle class="st0" cx="185.9" cy="120.5" r="98.5"/>
			<path class="st1" d="M73.7,100.2C82.6,50.4,123.9,11.9,174.9,7"/>
			<path class="st1" d="M295.2,159.7c-0.6,2.1,1-1.7,0.2,0.3c-10.7,28.3-32.4,51.9-61.1,64.4c-6.3,2.7-12.8,4.9-19.7,6.5"/>
			<path class="st2" d="M299.9,120.5"/>
			<g>
				<path class="st3" d="M81.8,139.6c0.2-0.7,0.4-1.4,0.4-2.1c0-3.5-2.8-6.3-6.3-6.3c-0.9,0-1.7,0.2-2.5,0.5c-1.1-2.2-3.4-3.7-6-3.7
					c-3,0-5.5,1.9-6.4,4.6c-0.8-0.3-1.7-0.4-2.5-0.4c-4.2,0-7.7,3.2-8,7.4c-0.5-0.1-1.1-0.2-1.7-0.2c-3.8,0-6.9,3.3-6.9,7.3
					c0,3.8,2.7,6.8,6.1,7.2c0.1,0,0.2,0,0.3,0h32.5c0.1,0,0.2,0,0.3-0.1c3.4-0.5,6-3.5,6-7.2C87.1,143.3,84.8,140.4,81.8,139.6z"/>
			</g>
			<g>
				<path class="st4" d="M293.3,175.1c0.3-0.8,0.5-1.8,0.5-2.7c0-4.4-3.6-8-8-8c-1.1,0-2.2,0.2-3.1,0.6c-1.4-2.8-4.3-4.6-7.6-4.6
					c-3.8,0-7,2.5-8.1,5.9c-1-0.3-2.1-0.5-3.2-0.5c-5.4,0-9.7,4.1-10.2,9.4c-0.7-0.2-1.4-0.3-2.1-0.3c-4.8,0-8.7,4.1-8.7,9.2
					c0,4.8,3.4,8.7,7.8,9.2c0.1,0,0.2,0.1,0.4,0.1h41.3c0.2,0,0.3,0,0.4-0.1c4.3-0.6,7.6-4.5,7.6-9.2
					C300,179.7,297.1,176,293.3,175.1z"/>
			</g>
			<g>
				<path class="st5" d="M67.9,191.4c0.3-0.8,0.5-1.7,0.5-2.6c0-4.3-3.5-7.8-7.8-7.8c-1.1,0-2.1,0.2-3,0.6c-1.4-2.7-4.2-4.5-7.4-4.5
					c-3.7,0-6.8,2.4-7.9,5.7c-1-0.3-2-0.5-3.1-0.5c-5.2,0-9.5,4-9.9,9.1c-0.7-0.2-1.3-0.3-2-0.3c-4.7,0-8.5,4-8.5,9
					c0,4.6,3.3,8.5,7.6,8.9c0.1,0,0.2,0.1,0.3,0.1h40.2c0.1,0,0.3,0,0.4-0.1c4.2-0.6,7.4-4.4,7.4-8.9
					C74.5,195.9,71.7,192.3,67.9,191.4z"/>
			</g>
			<g>
				<path class="st3" d="M353.4,157.2c0.4-1.1,0.6-2.3,0.6-3.6c0-5.9-4.8-10.7-10.7-10.7c-1.5,0-2.9,0.3-4.2,0.9
					c-1.9-3.7-5.8-6.2-10.2-6.2c-5.1,0-9.4,3.3-10.9,7.9c-1.4-0.5-2.8-0.7-4.3-0.7c-7.2,0-13.1,5.5-13.6,12.6
					c-0.9-0.2-1.9-0.4-2.8-0.4c-6.5,0-11.7,5.5-11.7,12.4c0,6.4,4.6,11.6,10.4,12.3c0.1,0,0.3,0.1,0.5,0.1h55.4c0.2,0,0.4,0,0.6-0.1
					c5.7-0.8,10.1-6,10.1-12.3C362.5,163.4,358.6,158.4,353.4,157.2z"/>
			</g>
			<path class="st6" d="M185,62.8c-25.1,0-45.5,20.4-45.5,45.5c0,13.5,11.1,28.5,11.1,28.5c2.2,3,5.8,7.9,8.1,10.9l22.3,30.3
				c2.2,3,5.8,3,8,0l22.3-30.3c2.2-3,5.8-7.9,8-10.9c0,0,11.1-15,11.1-28.5C230.6,83.2,210.2,62.8,185,62.8z M186,128.1
				c-11.8,0-21.4-9.6-21.4-21.4c0-11.8,9.6-21.4,21.4-21.4c11.8,0,21.4,9.6,21.4,21.4C207.4,118.5,197.8,128.1,186,128.1z"/>
			<g>
				<path class="st5" d="M251.8,113.6c0.2-0.7,0.4-1.4,0.4-2.1c0-3.5-2.8-6.3-6.3-6.3c-0.9,0-1.7,0.2-2.5,0.5
					c-1.1-2.2-3.4-3.7-6-3.7c-3,0-5.5,1.9-6.4,4.6c-0.8-0.3-1.7-0.4-2.5-0.4c-4.2,0-7.7,3.2-8,7.4c-0.5-0.1-1.1-0.2-1.7-0.2
					c-3.8,0-6.9,3.3-6.9,7.3c0,3.8,2.7,6.8,6.1,7.2c0.1,0,0.2,0,0.3,0h32.5c0.1,0,0.2,0,0.3-0.1c3.4-0.5,6-3.5,6-7.2
					C257.1,117.3,254.8,114.4,251.8,113.6z"/>
			</g>
			<path class="st7" d="M185.4,10l-2.9-2.9l2.9-2.9c0.6-0.6,0.6-1.5,0-2c-0.6-0.6-1.5-0.6-2,0L180.5,5l-2.9-2.9
				c-0.6-0.6-1.5-0.6-2,0c-0.6,0.6-0.6,1.5,0,2l2.9,2.9l-2.9,2.9c-0.6,0.6-0.6,1.5,0,2c0.6,0.6,1.5,0.6,2,0l2.9-2.9l2.9,2.9
				c0.6,0.6,1.5,0.6,2,0C185.9,11.5,185.9,10.6,185.4,10z"/>
			<circle class="st4" cx="72.7" cy="107.7" r="3.8"/>
			<path class="st8" d="M305.8,85.5c-2.9,5.4-3.5,6-8.9,8.9c5.4,2.9,6,3.5,8.9,8.9c2.9-5.4,3.5-6,8.9-8.9
				C309.2,91.5,308.7,90.9,305.8,85.5z"/>
			<path class="st3" d="M315.6,84.5c1.5-2.8,1.8-3.1,4.7-4.7c-2.8-1.5-3.1-1.8-4.7-4.7c-1.5,2.8-1.8,3.1-4.7,4.7
				C313.8,81.4,314.1,81.7,315.6,84.5z"/>
			<path class="st8" d="M14.4,157.2c-2.9,5.4-3.5,5.9-8.9,8.9c5.4,2.9,6,3.5,8.9,8.9c2.9-5.4,3.5-5.9,8.9-8.9
				C17.9,163.2,17.4,162.6,14.4,157.2z"/>
			<path class="st3" d="M24.3,156.2c1.5-2.8,1.8-3.1,4.7-4.7c-2.8-1.5-3.1-1.8-4.7-4.7c-1.5,2.8-1.8,3.1-4.7,4.7
				C22.4,153.1,22.7,153.4,24.3,156.2z"/>
			<path class="st9" d="M185,128c-11-0.6-20.3-9.9-20.3-21.3c0-11.4,9.3-20.7,20.3-21.3V62.8c-25,0.1-45.5,20.4-45.5,45.5
				c0,13.5,11.1,28.5,11.1,28.5c2.2,3,5.8,7.9,8.1,10.9l22.4,30.3c1.1,1.5,2.9,2.2,3.9,2.2V128z"/>
			<path class="st7" d="M211.4,234l-2.9-2.9l2.9-2.9c0.6-0.6,0.6-1.5,0-2c-0.6-0.6-1.5-0.6-2,0l-2.9,2.9l-2.9-2.9
				c-0.6-0.6-1.5-0.6-2,0c-0.6,0.6-0.6,1.5,0,2l2.9,2.9l-2.9,2.9c-0.6,0.6-0.6,1.5,0,2c0.6,0.6,1.5,0.6,2,0l2.9-2.9l2.9,2.9
				c0.6,0.6,1.5,0.6,2,0C211.9,235.5,211.9,234.6,211.4,234z"/>
			<g>
				<path class="st4" d="M159.9,144c0.5-1.4,0.8-2.8,0.8-4.4c0-7.2-5.8-13-13-13c-1.8,0-3.5,0.4-5.1,1c-2.3-4.5-7-7.5-12.3-7.5
					c-6.2,0-11.4,4-13.2,9.6c-1.6-0.6-3.4-0.9-5.2-0.9c-8.7,0-15.8,6.7-16.5,15.2c-1.1-0.3-2.2-0.4-3.4-0.4c-7.8,0-14.1,6.7-14.1,15
					c0,7.7,5.5,14.1,12.6,14.9c0.2,0.1,0.4,0.1,0.6,0.1h67c0.2,0,0.5-0.1,0.7-0.1c6.9-1,12.3-7.3,12.3-14.9
					C170.9,151.5,166.2,145.5,159.9,144z"/>
			</g>
		</g>
	</g>
</g>
<g id="Layer_1">
</g>
</svg>
