<?xml version="1.0" encoding="iso-8859-1"?>
<!-- Generator: Adobe Illustrator 16.0.0, SVG Export Plug-In . SVG Version: 6.00 Build 0)  -->
<!DOCTYPE svg PUBLIC "-//W3C//DTD SVG 1.1//EN" "http://www.w3.org/Graphics/SVG/1.1/DTD/svg11.dtd">
<svg version="1.1" xmlns="http://www.w3.org/2000/svg" xmlns:xlink="http://www.w3.org/1999/xlink" x="0px" y="0px" width="368px"
	 height="239.638px" viewBox="0 0 368 239.638" style="enable-background:new 0 0 368 239.638;" xml:space="preserve">
<g id="Layer_1_1_">
	<g>
		<g>
			<circle style="fill:#EAEAEA;" cx="185.926" cy="120.472" r="98.5"/>
			
				<path style="fill:none;stroke:#CCCCCC;stroke-width:1.5;stroke-linecap:round;stroke-miterlimit:10;stroke-dasharray:5,5,5,5,5,5;" d="
				M73.719,100.22c8.924-49.777,50.161-88.346,101.226-93.226"/>
			
				<path style="fill:none;stroke:#CCCCCC;stroke-width:1.5;stroke-linecap:round;stroke-miterlimit:10;stroke-dasharray:5,5,5,5,5,5;" d="
				M295.216,159.691c-0.649,2.068,0.973-1.693,0.21,0.329c-10.667,28.257-32.381,51.854-61.134,64.35
				c-6.253,2.718-12.839,4.911-19.716,6.513"/>
			<path style="fill:none;stroke:#EAEAEA;stroke-width:1.1574;stroke-miterlimit:10;" d="M299.926,120.472"/>
			<g>
				<path style="fill:#AAAAAA;" d="M81.771,139.637c0.237-0.664,0.368-1.381,0.368-2.126c0-3.479-2.821-6.301-6.301-6.301
					c-0.876,0-1.708,0.178-2.466,0.5c-1.123-2.168-3.386-3.651-5.996-3.651c-2.993,0-5.53,1.949-6.414,4.646
					c-0.801-0.268-1.657-0.415-2.547-0.415c-4.218,0-7.673,3.249-8.009,7.379c-0.531-0.14-1.087-0.214-1.659-0.214
					c-3.797,0-6.876,3.262-6.876,7.284c0,3.754,2.682,6.845,6.125,7.241c0.09,0.027,0.183,0.044,0.279,0.044h32.546
					c0.118,0,0.234-0.025,0.341-0.067c3.363-0.476,5.957-3.526,5.957-7.218C87.12,143.271,84.834,140.373,81.771,139.637z"/>
			</g>
			<g>
				<path style="fill:#CCCCCC;" d="M293.258,175.071c0.303-0.843,0.469-1.752,0.469-2.698c0-4.417-3.582-7.998-7.998-7.998
					c-1.111,0-2.168,0.226-3.129,0.635c-1.426-2.752-4.299-4.635-7.611-4.635c-3.801,0-7.02,2.474-8.143,5.896
					c-1.018-0.34-2.104-0.525-3.232-0.525c-5.355,0-9.74,4.123-10.166,9.365c-0.674-0.177-1.381-0.271-2.105-0.271
					c-4.82,0-8.729,4.141-8.729,9.246c0,4.766,3.404,8.688,7.775,9.191c0.113,0.035,0.23,0.056,0.354,0.056h41.311
					c0.151,0,0.299-0.03,0.436-0.085c4.268-0.605,7.561-4.477,7.561-9.162C300.049,179.685,297.146,176.005,293.258,175.071z"/>
			</g>
			<g>
				<path style="fill:#CCCCCC;" d="M67.887,191.383c0.294-0.82,0.455-1.704,0.455-2.627c0-4.298-3.484-7.783-7.783-7.783
					c-1.082,0-2.11,0.221-3.046,0.618c-1.386-2.678-4.183-4.511-7.407-4.511c-3.697,0-6.83,2.406-7.923,5.738
					c-0.989-0.33-2.048-0.512-3.148-0.512c-5.209,0-9.478,4.012-9.891,9.114c-0.657-0.173-1.344-0.265-2.05-0.265
					c-4.691,0-8.495,4.029-8.495,8.998c0,4.639,3.312,8.456,7.568,8.945c0.109,0.035,0.224,0.055,0.343,0.055h40.204
					c0.147,0,0.289-0.03,0.422-0.084c4.153-0.588,7.358-4.354,7.358-8.916C74.494,195.873,71.669,192.292,67.887,191.383z"/>
			</g>
			<g>
				<path style="fill:#CCCCCC;" d="M164.155,138.901c0.49-1.366,0.757-2.839,0.757-4.374c0-7.16-5.804-12.965-12.964-12.965
					c-1.801,0-3.513,0.367-5.071,1.029c-2.309-4.459-6.965-7.511-12.338-7.511c-6.156,0-11.374,4.008-13.195,9.556
					c-1.647-0.551-3.409-0.852-5.242-0.852c-8.676,0-15.784,6.682-16.474,15.18c-1.095-0.287-2.237-0.439-3.413-0.439
					c-7.815,0-14.149,6.709-14.149,14.984c0,7.727,5.518,14.084,12.605,14.898c0.183,0.058,0.372,0.092,0.57,0.092h66.96
					c0.246,0,0.482-0.051,0.702-0.141c6.919-0.979,12.257-7.252,12.257-14.85C175.16,146.379,170.454,140.415,164.155,138.901z"/>
			</g>
			<g>
				<path style="fill:#AAAAAA;" d="M353.37,157.195c0.405-1.131,0.628-2.348,0.628-3.617c0-5.919-4.801-10.718-10.721-10.718
					c-1.486,0-2.902,0.304-4.193,0.851c-1.908-3.688-5.758-6.211-10.197-6.211c-5.092,0-9.406,3.314-10.912,7.902
					c-1.363-0.456-2.818-0.705-4.334-0.705c-7.174,0-13.051,5.524-13.621,12.55c-0.904-0.236-1.85-0.362-2.822-0.362
					c-6.461,0-11.697,5.547-11.697,12.39c0,6.388,4.562,11.644,10.422,12.317c0.15,0.047,0.309,0.075,0.473,0.075h55.361
					c0.203,0,0.398-0.042,0.58-0.115c5.721-0.81,10.135-5.996,10.135-12.277C362.471,163.377,358.58,158.447,353.37,157.195z"/>
			</g>
			<path style="fill:#AAAAAA;" d="M185.013,62.776c-25.144,0-45.539,20.388-45.539,45.538c0,13.472,11.145,28.451,11.145,28.451
				c2.228,2.982,5.848,7.87,8.064,10.875l22.322,30.303c2.21,2.992,5.806,2.992,8.022,0l22.334-30.303
				c2.203-3.005,5.83-7.893,8.045-10.875c0,0,11.145-14.979,11.145-28.451C230.551,83.165,210.173,62.776,185.013,62.776z
				 M186.031,128.061c-11.813,0-21.395-9.573-21.395-21.387c0-11.809,9.581-21.379,21.395-21.379
				c11.812,0,21.369,9.571,21.369,21.379C207.4,118.488,197.844,128.061,186.031,128.061z"/>
			<g>
				<path style="fill:#CCCCCC;" d="M251.771,113.637c0.237-0.664,0.367-1.38,0.367-2.126c0-3.48-2.82-6.301-6.301-6.301
					c-0.875,0-1.707,0.178-2.465,0.5c-1.123-2.168-3.386-3.651-5.996-3.651c-2.994,0-5.53,1.949-6.414,4.645
					c-0.801-0.268-1.658-0.415-2.547-0.415c-4.218,0-7.674,3.249-8.009,7.378c-0.532-0.14-1.087-0.214-1.659-0.214
					c-3.797,0-6.876,3.262-6.876,7.284c0,3.754,2.682,6.845,6.125,7.241c0.09,0.027,0.183,0.044,0.278,0.044h32.547
					c0.118,0,0.234-0.025,0.341-0.067c3.362-0.476,5.957-3.526,5.957-7.218C257.12,117.271,254.834,114.373,251.771,113.637z"/>
			</g>
			<path style="fill:#CCCCCC;" d="M185.381,10.022l-2.86-2.916l2.913-2.856c0.572-0.56,0.581-1.468,0.021-2.038
				c-0.556-0.568-1.467-0.583-2.037-0.022l-2.915,2.855l-2.856-2.913c-0.557-0.569-1.473-0.579-2.04-0.024
				c-0.572,0.561-0.579,1.476-0.021,2.046l2.857,2.913l-2.918,2.859c-0.564,0.556-0.576,1.468-0.02,2.039
				c0.56,0.569,1.472,0.575,2.037,0.021l2.918-2.859l2.86,2.919c0.558,0.566,1.469,0.574,2.042,0.017
				C185.928,11.505,185.939,10.592,185.381,10.022z"/>
			<circle style="fill:#CCCCCC;" cx="72.725" cy="107.692" r="3.752"/>
			<path style="fill:#CCCCCC;" d="M305.763,85.528c-2.94,5.417-3.482,5.959-8.899,8.899c5.417,2.94,5.959,3.482,8.899,8.899
				c2.939-5.417,3.481-5.959,8.899-8.899C309.244,91.486,308.702,90.945,305.763,85.528z"/>
			<path style="fill:#AAAAAA;" d="M315.633,84.526c1.544-2.846,1.828-3.129,4.674-4.675c-2.846-1.544-3.13-1.827-4.674-4.671
				c-1.545,2.843-1.83,3.128-4.674,4.671C313.805,81.396,314.088,81.68,315.633,84.526z"/>
			<path style="fill:#CCCCCC;" d="M14.417,157.22c-2.936,5.409-3.477,5.95-8.887,8.887c5.41,2.937,5.951,3.478,8.887,8.887
				c2.937-5.409,3.478-5.95,8.887-8.887C17.895,163.17,17.354,162.629,14.417,157.22z"/>
			<path style="fill:#AAAAAA;" d="M24.273,156.219c1.542-2.842,1.825-3.125,4.667-4.668c-2.841-1.541-3.125-1.824-4.667-4.664
				c-1.542,2.839-1.827,3.123-4.668,4.664C22.447,153.094,22.731,153.377,24.273,156.219z"/>
			<path style="fill:#999999;" d="M185,128.002c-11-0.596-20.255-9.899-20.255-21.328c0-11.424,9.255-20.726,20.255-21.322V62.779
				c-25,0.066-45.472,20.426-45.472,45.535c0,13.472,11.118,28.451,11.118,28.451c2.227,2.982,5.833,7.87,8.05,10.875l22.37,30.303
				c1.073,1.455,2.934,2.195,3.934,2.236V128.002z"/>
			<path style="fill:#CCCCCC;" d="M211.381,234.022l-2.86-2.916l2.913-2.856c0.572-0.561,0.581-1.469,0.021-2.037
				c-0.556-0.568-1.468-0.583-2.037-0.022l-2.915,2.854l-2.855-2.912c-0.558-0.57-1.474-0.579-2.04-0.024
				c-0.571,0.561-0.579,1.476-0.021,2.046l2.856,2.914l-2.918,2.858c-0.564,0.556-0.575,1.468-0.02,2.039
				c0.561,0.569,1.473,0.575,2.037,0.021l2.919-2.859l2.86,2.919c0.558,0.565,1.469,0.573,2.041,0.017
				C211.928,235.505,211.939,234.592,211.381,234.022z"/>
		</g>
	</g>
</g>
<g id="Layer_1">
</g>
</svg>
